C:\Users\israe\Dropbox\PhDWork\ExperimentalData\subject14\100\P14S100W04_filtered35.mot
nRows=10
nColumns=28

name C:\Users\israe\Dropbox\PhDWork\ExperimentalData\subject14\100\P14S100W04_filtered35.mot
datacolumns 28
datarows 10
range 0.5970000000 0.6060000000
endheader
time	ground_force_1_vx	ground_force_1_vy	ground_force_1_vz	ground_force_1_px	ground_force_1_py	ground_force_1_pz	ground_moment_1_mx	ground_moment_1_my	ground_moment_1_mz	ground_force_2_vx	ground_force_2_vy	ground_force_2_vz	ground_force_2_px	ground_force_2_py	ground_force_2_pz	ground_moment_2_mx	ground_moment_2_my	ground_moment_2_mz	ground_force_3_vx	ground_force_3_vy	ground_force_3_vz	ground_force_3_px	ground_force_3_py	ground_force_3_pz	ground_moment_3_mx	ground_moment_3_my	ground_moment_3_mz
        0.5970000000	       22.3579881438	      466.2261618205	       16.5167542965	        0.1988394961	        0.0000558755	       -0.3004071324	       35.0613223097	        0.7601842247	      -27.7543688027	       -0.0000000000	        0.0000000000	        0.0000000000	        0.2029003516	       -0.0000795827	        0.4543649445	        0.0000000000	        0.0000000000	        0.0000000000	       -0.0000000000	        0.0000000000	       -0.0000000000	        0.2076431971	        0.0000770316	        1.3583900146	       -0.0000000000	       -0.0000000000	        0.0000000000	
        0.5980000000	       22.6398141558	      468.3589074196	       16.9674644106	        0.1988394961	        0.0000558755	       -0.3004071324	       35.0188383330	        0.7840324547	      -27.8956239193	        0.0000000000	        0.0000000001	        0.0000000001	        0.2029003516	       -0.0000795827	        0.4543649445	        0.0000000000	       -0.0000000000	        0.0000000000	       -0.0000000000	        0.0000000000	       -0.0000000000	        0.2076431971	        0.0000770316	        1.3583900146	       -0.0000000000	        0.0000000000	        0.0000000000	
        0.5990000000	       22.9176600934	      470.5156741849	       17.4161110124	        0.1988394961	        0.0000558755	       -0.3004071324	       34.9786431640	        0.8084092360	      -28.0381809022	        0.0000000000	        0.0000000002	        0.0000000001	        0.2029003516	       -0.0000795827	        0.4543649445	        0.0000000000	       -0.0000000000	        0.0000000000	       -0.0000000000	        0.0000000000	       -0.0000000000	        0.2076431971	        0.0000770316	        1.3583900146	       -0.0000000000	        0.0000000000	        0.0000000000	
        0.6000000000	       23.1925828666	      472.6983184348	       17.8634128346	        0.1988394961	        0.0000558755	       -0.3004071324	       34.9411000141	        0.8336113538	      -28.1820471917	        0.0000000000	        0.0000000003	        0.0000000001	        0.2029003516	       -0.0000795827	        0.4543649445	        0.0000000001	       -0.0000000000	        0.0000000000	       -0.0000000000	        0.0000000000	        0.0000000000	        0.2076431971	        0.0000770316	        1.3583900146	       -0.0000000000	        0.0000000000	        0.0000000000	
        0.6010000000	       23.4660188347	      474.9092948700	       18.3109006928	        0.1988394961	        0.0000558755	       -0.3004071324	       34.9063978059	        0.8599963019	      -28.3270671053	        0.0000000000	        0.0000000005	        0.0000000002	        0.2029003516	       -0.0000795827	        0.4543649445	        0.0000000001	       -0.0000000000	        0.0000000000	       -0.0000000000	        0.0000000000	        0.0000000000	        0.2076431971	        0.0000770316	        1.3583900146	       -0.0000000000	        0.0000000000	        0.0000000000	
        0.6020000000	       23.7393974300	      477.1529550625	       18.7601120686	        0.1988394961	        0.0000558755	       -0.3004071324	       34.8746994048	        0.8879561350	      -28.4729893482	        0.0000000000	        0.0000000007	        0.0000000003	        0.2029003516	       -0.0000795827	        0.4543649445	        0.0000000002	       -0.0000000000	        0.0000000000	       -0.0000000000	        0.0000000000	        0.0000000000	        0.2076431971	        0.0000770316	        1.3583900146	        0.0000000000	        0.0000000000	       -0.0000000000	
        0.6030000000	       24.0137332928	      479.4356535199	       19.2119776207	        0.1988394961	        0.0000558755	       -0.3004071324	       34.8462095021	        0.9177632991	      -28.6196038248	        0.0000000000	        0.0000000010	        0.0000000004	        0.2029003516	       -0.0000795827	        0.4543649445	        0.0000000002	       -0.0000000000	        0.0000000000	       -0.0000000000	        0.0000000000	        0.0000000000	        0.2076431971	        0.0000770316	        1.3583900146	        0.0000000000	        0.0000000000	       -0.0000000000	
        0.6040000000	       24.2895124814	      481.7633575201	       19.6670973682	        0.1988394961	        0.0000558755	       -0.3004071324	       34.8211138216	        0.9493941816	      -28.7668344885	        0.0000000001	        0.0000000013	        0.0000000004	        0.2029003516	       -0.0000795827	        0.4543649445	        0.0000000003	       -0.0000000000	        0.0000000001	       -0.0000000000	        0.0000000000	        0.0000000000	        0.2076431971	        0.0000770316	        1.3583900146	        0.0000000000	        0.0000000000	       -0.0000000000	
        0.6050000000	       24.5666397436	      484.1396715689	       20.1263551088	        0.1988394961	        0.0000558755	       -0.3004071324	       34.7996120426	        0.9825177436	      -28.9146509525	        0.0000000001	        0.0000000016	        0.0000000005	        0.2029003516	       -0.0000795827	        0.4543649445	        0.0000000003	       -0.0000000000	        0.0000000001	       -0.0000000000	        0.0000000000	        0.0000000000	        0.2076431971	        0.0000770316	        1.3583900146	        0.0000000000	        0.0000000000	       -0.0000000000	
        0.6060000000	       24.8444387530	      486.5662933690	       20.5910948768	        0.1988394961	        0.0000558755	       -0.3004071324	       34.7819786196	        1.0166963794	      -29.0629767041	        0.0000000001	        0.0000000018	        0.0000000006	        0.2029003516	       -0.0000795827	        0.4543649445	        0.0000000004	       -0.0000000000	        0.0000000001	       -0.0000000000	        0.0000000000	        0.0000000000	        0.2076431971	        0.0000770316	        1.3583900146	        0.0000000000	        0.0000000000	       -0.0000000000	
